<svg width="46" height="46" viewBox="0 0 46 46" fill="#000" xmlns="http://www.w3.org/2000/svg">
<path d="M23 7.66675C14.5453 7.66675 7.66663 14.5455 7.66663 23.0001C7.66663 31.4548 14.5453 38.3335 23 38.3335C31.4546 38.3335 38.3334 31.4548 38.3334 23.0001C38.3334 14.5455 31.4546 7.66675 23 7.66675ZM30.8445 13.3943C31.0167 13.2025 31.26 13.0892 31.5183 13.0789C31.7411 13.0537 32.0275 13.1622 32.2146 13.34C34.2024 15.2221 35.5539 17.6179 36.1191 20.2683C36.2089 20.6913 36.0049 21.1218 35.6211 21.3202C34.6834 21.805 33.5697 22.0399 32.5029 22.0399C31.1122 22.0399 29.7944 21.6411 29.0308 20.8775C27.4061 19.2538 28.0836 16.4565 30.8445 13.3943ZM15.1556 32.7556C14.9833 32.9474 14.74 33.0616 14.4817 33.072C14.4705 33.0729 14.4574 33.0729 14.4443 33.0729C14.1991 33.0729 13.9632 32.9792 13.7854 32.8108C11.7976 30.9287 10.4462 28.5329 9.88101 25.8816C9.79116 25.4586 9.9952 25.0281 10.3789 24.8297C12.5389 23.7151 15.6198 23.9228 16.9693 25.2723C18.5921 26.8962 17.9145 29.6935 15.1556 32.7556ZM16.9692 20.8776C16.2056 21.6412 14.8878 22.04 13.4971 22.04C12.4302 22.04 11.3184 21.805 10.3788 21.3203C9.99511 21.1219 9.79107 20.6914 9.88091 20.2684C10.4462 17.618 11.7976 15.2222 13.7853 13.3401C13.9725 13.1623 14.2477 13.0519 14.4816 13.079C14.7399 13.0894 14.9832 13.2026 15.1555 13.3944C17.9164 16.4565 18.5939 19.2538 16.9692 20.8776ZM27.0841 35.7795C25.757 36.2025 24.3831 36.4168 23 36.4168C21.6168 36.4168 20.2429 36.2026 18.9159 35.7795C18.4947 35.6447 18.2196 35.2404 18.2495 34.7997C18.4891 31.3509 20.5312 28.7501 23 28.7501C25.4688 28.7501 27.5109 31.3509 27.7505 34.7996C27.7804 35.2404 27.5053 35.6447 27.0841 35.7795ZM19.1666 23.0001C19.1666 20.886 20.8868 19.1667 23 19.1667C25.1132 19.1667 26.8334 20.8859 26.8334 23.0001C26.8334 25.1143 25.1132 26.8335 23 26.8335C20.8868 26.8335 19.1666 25.1142 19.1666 23.0001ZM27.7505 11.2764C27.5109 14.7242 25.4688 17.325 23 17.325C20.5312 17.325 18.4891 14.7242 18.2495 11.2764C18.2196 10.8356 18.4928 10.4313 18.914 10.2975C21.5681 9.44952 24.4319 9.44952 27.086 10.2975C27.5072 10.4313 27.7804 10.8356 27.7505 11.2764ZM36.1191 25.7291C35.5538 28.3804 34.2024 30.7763 32.2146 32.6583C32.0368 32.8268 31.801 32.9204 31.5558 32.9204C31.5427 32.9204 31.5296 32.9204 31.5183 32.9195C31.26 32.9092 31.0167 32.796 30.8445 32.6041C28.0837 29.542 27.4061 26.7437 29.0308 25.12C30.3803 23.7695 33.4593 23.5645 35.6211 24.6773C36.0049 24.8756 36.2089 25.3061 36.1191 25.7291Z" fill="black"/>
<path d="M23 0C10.317 0 0 10.318 0 23C0 35.682 10.317 46 23 46C35.683 46 46 35.682 46 23C46 10.318 35.683 0 23 0ZM23 40.25C13.4878 40.25 5.75 32.5113 5.75 23C5.75 13.4887 13.4878 5.75 23 5.75C32.5122 5.75 40.25 13.4887 40.25 23C40.25 32.5113 32.5122 40.25 23 40.25Z" fill="black"/>
</svg>
